<svg width="239" height="146" viewBox="0 0 239 146" fill="none" xmlns="http://www.w3.org/2000/svg">
<path fill-rule="evenodd" clip-rule="evenodd" d="M70.8979 79.4884C66.2917 79.4884 62.0577 78.4183 58.196 76.2781C54.3808 74.1378 51.3333 71.1601 49.0534 67.3449C46.8201 63.4832 45.7035 59.1561 45.7035 54.3639C45.7035 49.5716 46.8201 45.2678 49.0534 41.4526C51.3333 37.6374 54.3808 34.6597 58.196 32.5194C62.0577 30.3792 66.2917 29.3091 70.8979 29.3091C75.504 29.3091 79.7147 30.3792 83.5299 32.5194C87.3917 34.6597 90.4159 37.6374 92.6027 41.4526C94.836 45.2678 95.9526 49.5716 95.9526 54.3639C95.9526 59.1561 94.836 63.4832 92.6027 67.3449C90.3694 71.1601 87.3451 74.1378 83.5299 76.2781C79.7147 78.4183 75.504 79.4884 70.8979 79.4884ZM70.8979 68.6011C74.8061 68.6011 77.9234 67.2984 80.2498 64.6929C82.6227 62.0873 83.8091 58.6443 83.8091 54.3639C83.8091 50.0369 82.6227 46.5939 80.2498 44.0349C77.9234 41.4294 74.8061 40.1266 70.8979 40.1266C66.9431 40.1266 63.7792 41.4061 61.4064 43.9651C59.08 46.5241 57.9168 49.9903 57.9168 54.3639C57.9168 58.6909 59.08 62.1571 61.4064 64.7626C63.7792 67.3216 66.9431 68.6011 70.8979 68.6011ZM29.9881 53.8753C32.8262 54.4802 35.1061 55.8993 36.8276 58.1325C38.5491 60.3193 39.4098 62.8318 39.4098 65.6699C39.4098 69.7643 37.9675 73.0212 35.0828 75.4406C32.2447 77.8135 28.2666 78.9999 23.1486 78.9999H0.327148V30.007H22.3809C27.3593 30.007 31.2443 31.1469 34.0359 33.4267C36.8741 35.7065 38.2932 38.8006 38.2932 42.7089C38.2932 45.5935 37.5255 47.9897 35.9901 49.8973C34.5012 51.8049 32.5006 53.1309 29.9881 53.8753ZM12.2613 49.8275H20.0779C22.032 49.8275 23.5209 49.4087 24.5444 48.5713C25.6146 47.6872 26.1496 46.4077 26.1496 44.7328C26.1496 43.0578 25.6146 41.7783 24.5444 40.8943C23.5209 40.0103 22.032 39.5683 20.0779 39.5683H12.2613V49.8275ZM21.0549 69.3688C23.0556 69.3688 24.591 68.9268 25.6611 68.0428C26.7777 67.1123 27.3361 65.7862 27.3361 64.0647C27.3361 62.3432 26.7545 60.994 25.5913 60.0169C24.4747 59.0398 22.916 58.5513 20.9153 58.5513H12.2613V69.3688H21.0549ZM130.428 79.3009C129.633 79.3942 128.824 79.4526 128.003 79.4763C128.394 75.9208 128.172 70.7883 128.006 68.5801C131.52 68.4029 134.355 67.1071 136.51 64.6929C138.883 62.0873 140.069 58.6443 140.069 54.3639C140.069 50.0369 138.883 46.5939 136.51 44.0349C134.184 41.4294 131.067 40.1266 127.158 40.1266C123.203 40.1266 120.04 41.4061 117.667 43.9651C115.34 46.5241 114.177 49.9903 114.177 54.3639C114.177 57.0158 114.614 59.3445 115.488 61.3498L110.78 73.7623C108.629 71.9822 106.807 69.8431 105.314 67.3449C103.081 63.4832 101.964 59.1561 101.964 54.3639C101.964 49.5716 103.081 45.2678 105.314 41.4526C107.594 37.6374 110.641 34.6597 114.456 32.5194C118.318 30.3792 122.552 29.3091 127.158 29.3091C131.764 29.3091 135.975 30.3792 139.79 32.5194C143.652 34.6597 146.676 37.6374 148.863 41.4526C151.096 45.2678 152.213 49.5716 152.213 54.3639C152.213 56.2094 152.047 57.986 151.716 59.6935C151.647 59.6207 151.575 59.5561 151.5 59.5C148.198 57.0232 144.895 58.6361 142.437 59.8368C141.918 60.0904 141.436 60.3256 141 60.5C138.888 61.3447 133.922 72.8923 132.13 77.0612C131.8 77.8276 131.578 78.3447 131.5 78.5C131.292 78.9161 130.911 79.1591 130.428 79.3009ZM172.182 57.3649L182.627 71.0846C185.126 71.4019 189.399 71.7343 190.5 71.0002C190.939 69.2433 191.764 66.7148 192.297 65.1092L183.558 54.0149L202.541 30.007H188.513L172.182 51.5025V30.007H160.248V78.9999H172.182V57.3649Z" fill="black"/>
<path d="M101.568 124.745C99.7957 124.79 98.3417 124.472 97.2058 123.791C96.0244 123.109 95.1157 122.11 94.4796 120.792C93.798 119.52 93.3664 117.952 93.1846 116.089C93.0029 114.272 93.0029 112.273 93.1846 110.092C93.4118 108.41 93.8208 106.661 94.4114 104.844C94.9112 103.299 95.6837 101.595 96.7287 99.7321C97.7283 97.8692 99.0914 96.0518 100.818 94.2798C101.181 94.3706 101.477 94.4842 101.704 94.6205C101.931 94.7114 102.113 94.825 102.249 94.9613C102.386 95.143 102.476 95.3021 102.522 95.4384C102.613 95.9382 102.476 96.5061 102.113 97.1423C101.749 97.7784 101.386 98.4599 101.022 99.1869C100.023 101.277 99.2731 103.253 98.7733 105.116C98.2735 106.979 97.9555 108.706 97.8192 110.296C97.7283 111.659 97.751 112.886 97.8873 113.976C97.9782 115.112 98.1372 116.067 98.3644 116.839C98.5916 117.657 98.8415 118.27 99.1141 118.679C99.3867 119.134 99.6366 119.361 99.8638 119.361C100.091 119.361 100.318 119.202 100.545 118.884C100.818 118.566 101.068 118.179 101.295 117.725C101.568 117.271 101.886 116.566 102.249 115.612C102.613 114.703 102.999 113.636 103.408 112.409C103.817 111.182 104.203 109.864 104.566 108.456C104.975 107.002 105.339 105.548 105.657 104.094C106.293 101.186 106.975 97.9147 107.702 94.2798C108.429 90.5994 109.496 86.76 110.905 82.7616C111.359 81.0804 111.927 79.2403 112.609 77.2411C113.154 75.5145 113.836 73.5153 114.653 71.2434C115.517 68.9262 116.494 66.4272 117.584 63.7464C117.584 63.5192 117.766 63.3148 118.129 63.133C118.538 62.9058 118.993 62.6787 119.492 62.4515C120.038 62.2243 120.651 61.9971 121.333 61.7699C122.241 61.4519 122.946 61.2701 123.445 61.2247C123.991 61.1793 124.4 61.2474 124.672 61.4292C124.945 61.6109 125.127 61.8608 125.217 62.1789C125.308 62.4515 125.354 62.7695 125.354 63.133C125.445 64.6324 125.49 66.041 125.49 67.3586C125.535 68.6763 125.581 69.8349 125.626 70.8345C125.672 72.0159 125.694 73.0836 125.694 74.0378C125.74 75.31 125.672 77.0139 125.49 79.1494C125.308 81.2395 125.104 83.4431 124.877 85.7604C124.695 88.0777 124.513 90.3495 124.331 92.5759C124.195 94.7568 124.172 96.5743 124.263 98.0283C124.263 98.8007 124.286 99.5277 124.331 100.209C124.422 100.845 124.513 101.481 124.604 102.118C125.195 100.482 125.853 98.778 126.58 97.0059C127.307 95.1885 128.034 93.4619 128.761 91.8262C129.488 90.145 130.17 88.6002 130.806 87.1917C131.442 85.7377 131.942 84.5336 132.305 83.5795C132.851 82.3072 133.578 80.6942 134.486 78.7405C135.395 76.7867 136.304 74.8329 137.213 72.8792C138.167 70.9254 139.03 69.1306 139.803 67.4949C140.62 65.8592 141.211 64.7233 141.575 64.0872C141.847 63.6328 142.302 63.2239 142.938 62.8604C143.619 62.4969 144.323 62.1789 145.05 61.9062C145.823 61.6336 146.527 61.4519 147.163 61.361C147.845 61.2247 148.299 61.202 148.526 61.2928C149.117 61.4292 149.526 61.6109 149.753 61.8381C150.026 62.0653 150.185 62.2243 150.23 62.3152C150.321 62.4969 150.389 62.815 150.435 63.2693C150.48 63.6783 150.457 64.3371 150.366 65.2458C150.276 66.3363 150.003 67.9947 149.549 70.2211C149.14 72.4475 148.617 74.992 147.981 77.8545C147.39 80.6715 146.732 83.693 146.005 86.919C145.323 90.145 144.664 93.3256 144.028 96.4607C143.392 99.5504 142.824 102.458 142.324 105.185C141.87 107.911 141.575 110.205 141.438 112.068C141.347 114.158 141.484 115.998 141.847 117.589C141.983 118.27 142.188 118.929 142.461 119.565C142.733 120.201 143.097 120.747 143.551 121.201C144.005 121.701 144.551 122.064 145.187 122.291C145.823 122.519 146.573 122.587 147.436 122.496C146.3 123.268 145.187 123.836 144.096 124.2C143.006 124.563 141.938 124.745 140.893 124.745C139.757 124.79 138.757 124.609 137.894 124.2C137.031 123.836 136.304 123.291 135.713 122.564C135.123 121.882 134.691 121.042 134.418 120.042C134.146 119.088 134.055 118.02 134.146 116.839C134.237 115.748 134.532 113.954 135.032 111.455C135.531 108.956 136.122 106.139 136.804 103.004C137.531 99.823 138.303 96.5289 139.121 93.1211C139.984 89.6679 140.779 86.442 141.506 83.4431C142.279 80.3989 142.938 77.7863 143.483 75.6053C144.028 73.4244 144.369 71.9931 144.505 71.3116C144.596 70.7664 144.664 70.2666 144.71 69.8122C144.801 69.3124 144.891 68.8807 144.982 68.5172C144.528 69.426 143.96 70.5165 143.278 71.7887C142.642 73.0609 141.961 74.424 141.234 75.878C140.507 77.3319 139.757 78.8541 138.985 80.4443C138.258 81.9892 137.553 83.4886 136.872 84.9425C135.736 87.3052 134.623 89.7361 133.532 92.2351C132.442 94.6887 131.465 97.0287 130.602 99.255C129.738 101.481 129.011 103.481 128.421 105.253C127.875 107.025 127.557 108.388 127.466 109.342V110.296C127.466 110.569 127.466 110.887 127.466 111.25C127.512 111.614 127.58 111.955 127.671 112.273L124.945 114.385C124.536 114.522 124.172 114.635 123.854 114.726C123.582 114.817 123.309 114.862 123.036 114.862C121.991 114.862 121.196 114.317 120.651 113.227C120.106 112.227 119.606 110.273 119.152 107.365C118.697 104.458 118.561 100.891 118.743 96.6652C118.834 94.5751 118.97 92.4623 119.152 90.3268C119.379 88.1913 119.583 86.1466 119.765 84.1928C119.992 82.2391 120.197 80.4216 120.378 78.7405C120.56 77.0139 120.651 75.5372 120.651 74.3104C120.696 73.4017 120.674 72.5838 120.583 71.8568C120.492 71.0844 120.401 70.3801 120.31 69.744C119.901 70.7891 119.447 72.2203 118.947 74.0378C118.447 75.8098 117.925 77.7863 117.38 79.9672C116.834 82.1482 116.266 84.4427 115.676 86.8509C115.13 89.259 114.585 91.5763 114.04 93.8027C113.54 96.0291 113.063 98.0964 112.609 100.005C112.154 101.868 111.791 103.367 111.518 104.503C111.064 106.32 110.61 108.388 110.155 110.705C109.701 113.022 109.133 115.203 108.451 117.248C107.77 119.338 106.884 121.087 105.793 122.496C104.703 123.95 103.294 124.699 101.568 124.745Z" fill="#C44B6A"/>
<path d="M187.544 98.4372C186.907 99.3459 186.09 100.482 185.09 101.845C184.09 103.163 183.045 104.503 181.955 105.866C180.91 107.184 179.865 108.41 178.82 109.546C177.82 110.637 176.98 111.409 176.298 111.864C175.844 112.136 175.321 112.363 174.73 112.545C174.14 112.727 173.526 112.841 172.89 112.886C172.3 112.931 171.732 112.886 171.186 112.75C170.641 112.659 170.164 112.477 169.755 112.204C169.346 111.886 169.005 111.432 168.733 110.841C168.506 110.342 168.278 109.683 168.051 108.865C167.87 108.047 167.801 107.025 167.847 105.798C166.756 107.615 165.552 109.024 164.235 110.023C162.917 110.978 161.667 111.682 160.486 112.136C159.123 112.636 157.76 112.931 156.397 113.022C155.761 113.022 155.079 112.795 154.352 112.341C153.625 111.932 153.012 111.273 152.512 110.364C152.012 109.41 151.694 108.206 151.558 106.752C151.422 105.253 151.603 103.481 152.103 101.436C152.739 98.6644 153.739 96.1426 155.102 93.8708C156.51 91.599 158.033 89.6679 159.668 88.0777C161.304 86.442 162.917 85.2152 164.507 84.3973C166.098 83.5795 167.415 83.216 168.46 83.3068C169.687 83.534 170.687 83.8975 171.459 84.3973C172.095 84.8517 172.504 85.5332 172.686 86.442C172.913 87.3052 172.55 88.4639 171.595 89.9178C172.231 89.7815 172.754 89.6907 173.163 89.6452C173.617 89.5998 173.958 89.5771 174.185 89.5771C174.458 89.5771 174.64 89.5998 174.73 89.6452C174.776 89.7361 174.799 89.9406 174.799 90.2586C174.799 90.5312 174.73 91.0538 174.594 91.8262C174.458 92.5986 174.253 93.6436 173.981 94.9613C173.708 96.279 173.345 97.9828 172.89 100.073C172.799 100.482 172.709 100.868 172.618 101.232C172.572 101.55 172.504 101.89 172.413 102.254C172.368 102.572 172.3 102.958 172.209 103.412C172.118 103.867 172.004 104.435 171.868 105.116C171.823 105.525 171.8 105.98 171.8 106.479C171.845 106.934 171.936 107.365 172.072 107.774C172.209 108.183 172.413 108.524 172.686 108.797C173.004 109.024 173.436 109.137 173.981 109.137C174.435 109.137 175.026 108.865 175.753 108.32C176.48 107.729 177.252 107.002 178.07 106.139C178.888 105.23 179.728 104.253 180.592 103.208C181.5 102.118 182.341 101.073 183.113 100.073C183.886 99.0733 184.567 98.1873 185.158 97.4149C185.794 96.6424 186.249 96.0745 186.521 95.711C186.885 95.3021 187.248 95.0749 187.612 95.0294C187.975 94.9386 188.248 95.0295 188.43 95.3021C188.611 95.5747 188.634 95.9836 188.498 96.5289C188.407 97.0741 188.089 97.7102 187.544 98.4372ZM167.574 101.436C167.801 100.527 168.074 99.4595 168.392 98.2327C168.71 97.0059 168.983 95.8246 169.21 94.6887C169.437 93.5528 169.596 92.6213 169.687 91.8943C169.823 91.1219 169.801 90.7584 169.619 90.8039C169.392 90.8493 169.142 90.9174 168.869 91.0083C168.642 91.0992 168.347 91.1673 167.983 91.2128C167.62 91.2582 167.256 91.3264 166.893 91.4172C167.256 90.6903 167.461 90.0996 167.506 89.6452C167.597 89.1454 167.62 88.7592 167.574 88.4866C167.529 88.1685 167.438 87.9186 167.302 87.7369C166.802 87.328 165.916 87.6687 164.644 88.7592C163.417 89.8043 161.986 91.758 160.35 94.6205C159.668 95.8019 159.123 97.0741 158.714 98.4372C158.305 99.7548 158.01 101.004 157.828 102.186C157.692 103.367 157.669 104.412 157.76 105.321C157.851 106.184 158.033 106.752 158.305 107.025C158.805 107.524 159.373 107.774 160.009 107.774C160.645 107.729 161.281 107.547 161.917 107.229C162.599 106.866 163.258 106.411 163.894 105.866C164.575 105.321 165.166 104.753 165.666 104.162C166.211 103.572 166.643 103.026 166.961 102.526C167.324 102.027 167.529 101.663 167.574 101.436Z" fill="#C44B6A"/>
<path d="M209.522 94.7568C209.704 94.4842 209.931 94.3252 210.204 94.2798C210.522 94.1889 210.772 94.2116 210.953 94.3479C211.135 94.4842 211.226 94.7114 211.226 95.0294C211.271 95.3475 211.158 95.7792 210.885 96.3244C209.976 98.051 208.772 99.9139 207.273 101.913C205.819 103.912 204.274 105.798 202.638 107.57C201.003 109.297 199.412 110.728 197.868 111.864C196.323 113 195.028 113.568 193.983 113.568C192.483 113.568 191.234 113.272 190.234 112.682C189.235 112.091 188.44 111.364 187.849 110.501C187.304 109.637 186.917 108.706 186.69 107.706C186.463 106.661 186.395 105.707 186.486 104.844C186.531 104.117 186.69 102.822 186.963 100.959C187.235 99.0506 187.599 96.8696 188.053 94.4161C188.508 91.917 189.008 89.259 189.553 86.442C190.143 83.5795 190.757 80.8305 191.393 78.1952C190.621 78.2861 189.848 78.377 189.076 78.4678C188.303 78.5587 187.599 78.6042 186.963 78.6042C185.509 78.6042 184.146 78.4451 182.874 78.1271C181.556 77.7636 180.579 77.4228 179.943 77.1047C179.579 76.923 179.42 76.6731 179.466 76.355C179.511 75.9916 179.648 75.6508 179.875 75.3327C180.102 74.9692 180.397 74.6739 180.761 74.4467C181.079 74.1741 181.374 74.0378 181.647 74.0378C182.51 74.1287 183.442 74.2195 184.441 74.3104C185.441 74.3558 186.531 74.3558 187.713 74.3104C188.576 74.265 189.394 74.1968 190.166 74.1059C190.984 74.0151 191.779 73.9015 192.552 73.7652C193.142 71.5842 193.71 69.6986 194.255 68.1083C194.846 66.4726 195.369 65.3367 195.823 64.7006C195.959 64.4734 196.255 64.2917 196.709 64.1553C197.209 63.9736 197.731 63.86 198.277 63.8146C198.822 63.7237 199.344 63.7237 199.844 63.8146C200.344 63.86 200.707 64.019 200.935 64.2917C201.162 64.6551 201.253 65.5866 201.207 67.086C201.162 68.5854 200.912 70.4937 200.458 72.811C202.366 72.811 204.047 72.9246 205.501 73.1518C207 73.3335 208.273 73.5607 209.318 73.8333C210.363 74.0605 211.203 74.3104 211.839 74.583C212.475 74.8102 212.953 74.9692 213.271 75.0601C213.589 75.151 213.748 75.3782 213.748 75.7417C213.793 76.1051 213.725 76.4914 213.543 76.9003C213.407 77.2638 213.157 77.5818 212.794 77.8545C212.43 78.1271 212.021 78.2179 211.567 78.1271C211.112 78.0816 210.59 77.9908 209.999 77.8545C209.454 77.7181 208.772 77.6046 207.955 77.5137C207.182 77.4228 206.251 77.3319 205.16 77.2411C204.07 77.1502 202.797 77.1047 201.344 77.1047C201.071 77.1047 200.753 77.1275 200.389 77.1729C200.071 77.1729 199.731 77.1729 199.367 77.1729C199.185 77.8999 199.004 78.6269 198.822 79.3539C198.685 80.0354 198.481 80.7624 198.208 81.5348C197.618 83.3523 196.936 85.3288 196.164 87.4643C195.482 89.3272 194.664 91.4627 193.71 93.8708C192.756 96.279 191.688 98.8461 190.507 101.572C190.234 103.526 190.257 105.025 190.575 106.071C190.939 107.07 191.37 107.797 191.87 108.251C192.461 108.751 193.188 109.024 194.051 109.069C194.733 109.16 195.55 108.933 196.505 108.388C197.504 107.797 198.526 107.025 199.572 106.071C200.617 105.116 201.662 104.071 202.707 102.935C203.797 101.799 204.797 100.686 205.705 99.5958C206.614 98.5053 207.409 97.5285 208.091 96.6652C208.772 95.7564 209.249 95.1203 209.522 94.7568Z" fill="#C44B6A"/>
<path d="M237.703 97.8238C236.34 99.823 234.795 101.777 233.068 103.685C231.342 105.548 229.501 107.229 227.548 108.729C225.639 110.183 223.663 111.364 221.618 112.273C219.619 113.181 217.665 113.636 215.757 113.636C214.757 113.636 213.667 113.386 212.485 112.886C211.35 112.432 210.305 111.705 209.35 110.705C208.396 109.705 207.624 108.411 207.033 106.82C206.488 105.23 206.329 103.299 206.556 101.027C206.738 99.1642 207.306 97.2104 208.26 95.1658C209.259 93.0757 210.464 91.1673 211.872 89.4408C213.326 87.7142 214.939 86.2829 216.711 85.147C218.529 84.0111 220.346 83.4431 222.163 83.4431C223.89 83.4431 225.14 83.8748 225.912 84.7381C226.684 85.6014 227.025 86.6691 226.934 87.9414C226.798 89.3499 226.389 90.6448 225.707 91.8262C225.071 93.0075 224.299 94.0753 223.39 95.0294C222.481 95.9836 221.505 96.8469 220.46 97.6193C219.46 98.3918 218.506 99.096 217.597 99.7321C216.597 100.414 215.643 101.073 214.735 101.709C213.826 102.299 213.031 102.845 212.349 103.344C212.395 104.48 212.599 105.434 212.963 106.207C213.326 106.979 213.78 107.615 214.326 108.115C214.871 108.57 215.484 108.91 216.166 109.137C216.893 109.319 217.62 109.41 218.347 109.41C219.892 109.41 221.505 108.933 223.186 107.979C224.867 106.979 226.503 105.798 228.093 104.435C229.729 103.026 231.228 101.572 232.591 100.073C234 98.5735 235.158 97.2786 236.067 96.1881C236.385 95.8246 236.703 95.6201 237.021 95.5747C237.385 95.4838 237.657 95.5293 237.839 95.711C238.066 95.8473 238.18 96.1199 238.18 96.5289C238.18 96.8923 238.021 97.324 237.703 97.8238ZM220.255 87.328C219.71 87.328 219.051 87.6006 218.279 88.1458C217.552 88.6911 216.825 89.4862 216.098 90.5312C215.371 91.5308 214.689 92.7803 214.053 94.2798C213.417 95.7337 212.94 97.4149 212.622 99.3232C213.167 98.9143 213.758 98.5053 214.394 98.0964C215.03 97.6421 215.666 97.165 216.302 96.6652C218.256 95.1658 219.619 93.8481 220.391 92.7122C221.164 91.5763 221.595 90.5994 221.686 89.7815C221.777 88.9182 221.686 88.3048 221.414 87.9414C221.141 87.5324 220.755 87.328 220.255 87.328Z" fill="#C44B6A"/>
</svg>
